<svg width="220" height="17" viewBox="0 0 220 17" fill="none" xmlns="http://www.w3.org/2000/svg">
<path d="M23.3228 6.95215L25.5806 3.81934H27.2759L24.1274 7.99902L27.3618 12.2725H25.6899L23.354 9.05371L21.0181 12.2725H19.3306L22.5649 7.99902L19.4165 3.81934H21.0884L23.3228 6.95215Z" fill="#DBBBFB"/>
<path d="M13.7134 6.95215L15.9712 3.81934H17.6665L14.5181 7.99902L17.7524 12.2725H16.0806L13.7446 9.05371L11.4087 12.2725H9.72119L12.9556 7.99902L9.80713 3.81934H11.479L13.7134 6.95215Z" fill="#DBBBFB"/>
<path d="M4.104 6.95215L6.36182 3.81934H8.05713L4.90869 7.99902L8.14307 12.2725H6.47119L4.13525 9.05371L1.79932 12.2725H0.111816L3.34619 7.99902L0.197754 3.81934H1.86963L4.104 6.95215Z" fill="#DBBBFB"/>
<path d="M182.461 10.0225H180.173V15.8662H177.155V0.225586H182.397C183.264 0.225586 184.048 0.329427 184.75 0.537109C185.451 0.73763 186.053 1.03483 186.554 1.42871C187.048 1.82259 187.428 2.31315 187.693 2.90039C187.965 3.48763 188.101 4.16797 188.101 4.94141C188.101 5.5 188.033 6.00488 187.897 6.45605C187.768 6.90007 187.582 7.29753 187.338 7.64844C187.088 8.00651 186.787 8.31803 186.436 8.58301C186.092 8.84798 185.706 9.07715 185.276 9.27051L188.638 15.7266V15.8662H185.405L182.461 10.0225ZM180.173 7.57324H182.408C182.873 7.57324 183.281 7.50879 183.632 7.37988C183.99 7.24382 184.28 7.05046 184.502 6.7998C184.689 6.59928 184.828 6.35938 184.921 6.08008C185.022 5.80078 185.072 5.48926 185.072 5.14551C185.072 4.73014 185.007 4.36491 184.878 4.0498C184.757 3.72754 184.57 3.46257 184.32 3.25488C184.098 3.06868 183.826 2.92546 183.503 2.8252C183.181 2.72493 182.812 2.6748 182.397 2.6748H180.173V7.57324Z" fill="black"/>
<path d="M173.567 9.0127H167.143V13.4277H174.652V15.8662H164.114V0.225586H174.62V2.68555H167.143V6.62793H173.567V9.0127Z" fill="black"/>
<path d="M153.941 10.1299V15.8662H150.922V0.225586H156.272C157.124 0.225586 157.894 0.350911 158.582 0.601562C159.269 0.845052 159.856 1.18522 160.343 1.62207C160.823 2.06608 161.192 2.59603 161.45 3.21191C161.715 3.8278 161.847 4.51172 161.847 5.26367C161.847 5.96549 161.715 6.61361 161.45 7.20801C161.192 7.80241 160.823 8.31445 160.343 8.74414C159.856 9.18099 159.269 9.52116 158.582 9.76465C157.894 10.0081 157.124 10.1299 156.272 10.1299H153.941ZM153.941 7.68066H156.272C156.702 7.68066 157.074 7.61621 157.389 7.4873C157.704 7.3584 157.969 7.18294 158.184 6.96094C158.392 6.73893 158.546 6.4847 158.646 6.19824C158.753 5.90462 158.807 5.60026 158.807 5.28516C158.807 4.91992 158.753 4.57975 158.646 4.26465C158.546 3.94954 158.392 3.67383 158.184 3.4375C157.969 3.20117 157.704 3.01497 157.389 2.87891C157.074 2.74284 156.702 2.6748 156.272 2.6748H153.941V7.68066Z" fill="black"/>
<path d="M147.141 9.0127H140.717V13.4277H148.226V15.8662H137.688V0.225586H148.194V2.68555H140.717V6.62793H147.141V9.0127Z" fill="black"/>
<path d="M133.928 9.0127H127.504V13.4277H135.013V15.8662H124.475V0.225586H134.981V2.68555H127.504V6.62793H133.928V9.0127Z" fill="black"/>
<path d="M115.752 9.44238L114.098 11.2578V15.8662H111.069V0.225586H114.098V7.39062L115.516 5.47852L119.319 0.225586H123.014L117.75 7.14355L123.208 15.8662H119.62L115.752 9.44238Z" fill="black"/>
<path d="M108.201 15.8662H105.214V9.08789H100.789V15.8662H97.7915V0.225586H100.789V6.63867H105.214V0.225586H108.201V15.8662Z" fill="black"/>
<path d="M95.5249 10.9678C95.4748 11.7555 95.3029 12.4645 95.0093 13.0947C94.7228 13.7249 94.3361 14.262 93.8491 14.7061C93.3621 15.1501 92.7821 15.4938 92.1089 15.7373C91.4357 15.9736 90.6909 16.0918 89.8745 16.0918C89.23 16.0918 88.632 16.0094 88.0806 15.8447C87.5363 15.6729 87.0457 15.4294 86.6089 15.1143C86.2078 14.8206 85.8498 14.4661 85.5347 14.0508C85.2267 13.6354 84.9653 13.1771 84.7505 12.6758C84.5428 12.1745 84.3817 11.623 84.2671 11.0215C84.1597 10.4199 84.106 9.78255 84.106 9.10938V7.00391C84.106 6.3737 84.1561 5.77572 84.2563 5.20996C84.3566 4.63704 84.507 4.1071 84.7075 3.62012C84.9367 3.02572 85.2375 2.49577 85.6099 2.03027C85.9823 1.56478 86.4048 1.1709 86.8774 0.848633C87.3 0.576497 87.7619 0.368815 88.2632 0.225586C88.7716 0.0751953 89.3159 0 89.896 0C90.7554 0 91.5181 0.121745 92.1841 0.365234C92.8573 0.608724 93.4302 0.956055 93.9028 1.40723C94.3755 1.8584 94.7479 2.40983 95.02 3.06152C95.2922 3.71322 95.464 4.44727 95.5356 5.26367H92.5278C92.4992 4.79818 92.4276 4.38997 92.313 4.03906C92.2056 3.68815 92.048 3.39453 91.8403 3.1582C91.6255 2.92904 91.3569 2.75716 91.0347 2.64258C90.7196 2.52083 90.34 2.45996 89.896 2.45996C89.6597 2.45996 89.4377 2.48503 89.23 2.53516C89.0295 2.58529 88.8433 2.66048 88.6714 2.76074C88.3778 2.93262 88.1271 3.17969 87.9194 3.50195C87.7189 3.81706 87.5578 4.18587 87.436 4.6084C87.3429 4.93783 87.2749 5.30306 87.2319 5.7041C87.189 6.09798 87.1675 6.52409 87.1675 6.98242V9.10938C87.1675 9.73242 87.1997 10.291 87.2642 10.7852C87.3358 11.2721 87.4432 11.6982 87.5864 12.0635C87.6867 12.3141 87.8049 12.5361 87.9409 12.7295C88.0841 12.9229 88.2453 13.084 88.4243 13.2129C88.6177 13.3561 88.8325 13.4635 89.0688 13.5352C89.3123 13.5996 89.5809 13.6318 89.8745 13.6318C90.2684 13.6318 90.6229 13.5817 90.938 13.4814C91.2531 13.3812 91.5216 13.2236 91.7437 13.0088C91.9657 12.7939 92.1411 12.5182 92.27 12.1816C92.3989 11.8451 92.4777 11.4404 92.5063 10.9678H95.5249Z" fill="black"/>
<path d="M82.9458 2.68555H78.1226V15.8662H75.0933V2.68555H70.3345V0.225586H82.9458V2.68555Z" fill="black"/>
<path d="M58.9048 0.225586H67.9497V2.66406H64.8989V13.4385H67.9497V15.8662H58.9048V13.4385H61.8804V2.66406H58.9048V0.225586Z" fill="black"/>
<path d="M56.52 2.68555H51.6968V15.8662H48.6675V2.68555H43.9087V0.225586H56.52V2.68555Z" fill="black"/>
<path d="M39.9341 11.7842C39.9341 11.5049 39.884 11.2435 39.7837 11C39.6906 10.7565 39.5295 10.5273 39.3003 10.3125C39.064 10.1048 38.756 9.91504 38.3765 9.74316C38.0041 9.56413 37.5386 9.39941 36.98 9.24902C36.1134 9.0127 35.3507 8.72624 34.6919 8.38965C34.0402 8.05306 33.5067 7.68424 33.0913 7.2832C32.6759 6.88216 32.3608 6.43815 32.146 5.95117C31.9383 5.46419 31.8345 4.93424 31.8345 4.36133C31.8345 3.70247 31.9741 3.10449 32.2534 2.56738C32.5327 2.03027 32.9194 1.57194 33.4136 1.19238C33.9077 0.812826 34.4914 0.522786 35.1646 0.322266C35.8377 0.114583 36.5682 0.0107422 37.356 0.0107422C38.1724 0.0107422 38.9172 0.128906 39.5903 0.365234C40.2707 0.601562 40.8543 0.93099 41.3413 1.35352C41.8283 1.7832 42.2078 2.29167 42.48 2.87891C42.7521 3.46615 42.8882 4.11068 42.8882 4.8125H39.9448C39.9305 4.46159 39.866 4.13932 39.7515 3.8457C39.644 3.55208 39.4829 3.29785 39.2681 3.08301C39.0461 2.87533 38.7703 2.71419 38.4409 2.59961C38.1187 2.47786 37.7391 2.41699 37.3022 2.41699C36.9012 2.41699 36.5431 2.46712 36.228 2.56738C35.9201 2.66048 35.6587 2.79297 35.4438 2.96484C35.229 3.14388 35.0643 3.35514 34.9497 3.59863C34.8423 3.83496 34.7886 4.09277 34.7886 4.37207C34.7886 4.66569 34.8602 4.93066 35.0034 5.16699C35.1538 5.40332 35.3687 5.61458 35.6479 5.80078C35.9272 5.99414 36.2638 6.1696 36.6577 6.32715C37.0588 6.4847 37.5099 6.63151 38.0112 6.76758C38.5483 6.91797 39.0604 7.10059 39.5474 7.31543C40.0343 7.53027 40.4819 7.77734 40.8901 8.05664C41.506 8.51497 41.9966 9.0485 42.3618 9.65723C42.7271 10.266 42.9097 10.9678 42.9097 11.7627C42.9097 12.4502 42.77 13.0625 42.4907 13.5996C42.2186 14.1296 41.839 14.5771 41.3521 14.9424C40.8651 15.3148 40.285 15.5977 39.6118 15.791C38.9386 15.9772 38.2046 16.0703 37.4097 16.0703C36.6291 16.0703 35.8556 15.9557 35.0894 15.7266C34.3302 15.4902 33.6678 15.1465 33.1021 14.6953C32.5649 14.2513 32.1388 13.7285 31.8237 13.127C31.5158 12.5254 31.3618 11.82 31.3618 11.0107H34.3267C34.341 11.4834 34.4233 11.888 34.5737 12.2246C34.7241 12.5612 34.9354 12.8369 35.2075 13.0518C35.4725 13.2666 35.7912 13.4242 36.1636 13.5244C36.5431 13.6247 36.9585 13.6748 37.4097 13.6748C37.8107 13.6748 38.1652 13.6283 38.4731 13.5352C38.7882 13.4421 39.0532 13.3132 39.2681 13.1484C39.4829 12.9837 39.6476 12.7868 39.7622 12.5576C39.8768 12.3213 39.9341 12.0635 39.9341 11.7842Z" fill="black"/>
<path d="M215.849 6.95215L218.107 3.81934H219.802L216.654 7.99902L219.888 12.2725H218.216L215.88 9.05371L213.544 12.2725H211.857L215.091 7.99902L211.943 3.81934H213.615L215.849 6.95215Z" fill="#DBBBFB"/>
<path d="M206.24 6.95215L208.498 3.81934H210.193L207.044 7.99902L210.279 12.2725H208.607L206.271 9.05371L203.935 12.2725H202.248L205.482 7.99902L202.333 3.81934H204.005L206.24 6.95215Z" fill="#DBBBFB"/>
<path d="M196.63 6.95215L198.888 3.81934H200.583L197.435 7.99902L200.669 12.2725H198.998L196.662 9.05371L194.326 12.2725H192.638L195.873 7.99902L192.724 3.81934H194.396L196.63 6.95215Z" fill="#DBBBFB"/>
</svg>
